# xmcd
#
# Track frame offsets:
#	150
#	13475
#	28980
#	40275
#	56447
#	68962
#	80075
#	92850
#	103417
#	119007
#	133472
#
# Disc length: 1878 seconds
#
# Revision: 1
# Processed by: cddbd v1.4b41PL2 Copyright (c) Steve Scherf et al.
# Submitted via: audiograbber 1.80
#
DISCID=af07540b
DTITLE=Collin Raye - Counting Sheep
DYEAR=1900
DGENRE=
TTITLE0=Countin Sheep
TTITLE1=I'm Gonna Love You
TTITLE2=Blackbird
TTITLE3=A Mother and Father's Prayer
TTITLE4=When You Wish Upon a Star
TTITLE5=Cool Cat
TTITLE6=Too Ra Loo Ra Loo Ral
TTITLE7=Hearts Are For When You Want To Love
TTITLE8=The Dream Song
TTITLE9=When You Say Your Prayers
TTITLE10=Stay Awake
EXTD=
EXTT0=
EXTT1=
EXTT2=
EXTT3=
EXTT4=
EXTT5=
EXTT6=
EXTT7=
EXTT8=
EXTT9=
EXTT10=
PLAYORDER=
